<svg width="15" height="11" viewBox="0 0 15 11" fill="none" xmlns="http://www.w3.org/2000/svg">
<path fill-rule="evenodd" clip-rule="evenodd" d="M7.67452 5.04804C7.62974 5.09114 7.56968 5.11468 7.50755 5.1135C7.44541 5.11231 7.38629 5.0865 7.34318 5.04173L4.35533 1.93833C3.90938 1.47507 3.20066 1.36827 2.69978 1.77084C2.30031 2.09188 1.90199 2.47624 1.61222 2.87158C1.27094 3.33766 1.41498 3.94708 1.79298 4.38373C3.1421 5.94439 5.1595 8.01194 6.49076 9.05795C7.05385 9.5 7.79388 9.51362 8.37292 9.09379C9.74351 8.09925 11.8377 6.11001 13.2453 4.60186C13.6396 4.17992 13.8068 3.57643 13.484 3.09769C13.2095 2.69161 12.8256 2.29282 12.4391 1.95634C11.9539 1.53499 11.2407 1.61471 10.7779 2.06066L7.67452 5.04804Z" fill="black" stroke="black" stroke-width="1.5" stroke-linecap="round" stroke-linejoin="round"/>
</svg>
